<svg width="33" height="33" viewBox="0 0 33 33" fill="none" xmlns="http://www.w3.org/2000/svg">
<path d="M14.6333 22.275L24.0333 12.5813L22.1667 10.6562L14.6333 18.425L10.8333 14.5063L8.96667 16.4312L14.6333 22.275ZM7.16667 28.875C6.43333 28.875 5.80556 28.6057 5.28333 28.0672C4.76111 27.5286 4.5 26.8813 4.5 26.125V6.875C4.5 6.11875 4.76111 5.47135 5.28333 4.93281C5.80556 4.39427 6.43333 4.125 7.16667 4.125H25.8333C26.5667 4.125 27.1944 4.39427 27.7167 4.93281C28.2389 5.47135 28.5 6.11875 28.5 6.875V26.125C28.5 26.8813 28.2389 27.5286 27.7167 28.0672C27.1944 28.6057 26.5667 28.875 25.8333 28.875H7.16667Z" fill="#FEFEFE"/>
</svg>
