<svg width="33" height="33" viewBox="0 0 33 33" fill="none" xmlns="http://www.w3.org/2000/svg">
<path d="M15.1666 5.50001H5.83329C5.12605 5.50001 4.44777 5.78974 3.94767 6.30546C3.44758 6.82119 3.16663 7.52066 3.16663 8.25001V27.5C3.16663 28.2294 3.44758 28.9288 3.94767 29.4446C4.44777 29.9603 5.12605 30.25 5.83329 30.25H24.5C25.2072 30.25 25.8855 29.9603 26.3856 29.4446C26.8857 28.9288 27.1666 28.2294 27.1666 27.5V17.875M25.1666 3.43751C25.6971 2.8905 26.4165 2.58319 27.1666 2.58319C27.9168 2.58319 28.6362 2.8905 29.1666 3.43751C29.6971 3.98452 29.9951 4.72642 29.9951 5.50001C29.9951 6.27359 29.6971 7.0155 29.1666 7.56251L16.5 20.625L11.1666 22L12.5 16.5L25.1666 3.43751Z" stroke="white" stroke-width="3" stroke-linecap="round" stroke-linejoin="round"/>
</svg>
